<svg width="850" height="600" xmlns="http://www.w3.org/2000/svg" font-family="sans-serif" font-size="13">

  <defs>
    <marker id="arrowhead" markerWidth="10" markerHeight="7" refX="0" refY="3.5" orient="auto" markerUnits="strokeWidth">
      <path d="M0,0 L10,3.5 L0,7 z" fill="#555" />
    </marker>
    <style>
      .box { fill: #f0f4f8; stroke: #b0c4de; stroke-width: 1.5; rx: 6; ry: 6; }
      .data-box { fill: #e6f3ff; stroke: #99ccff; }
      .prompt-box { fill: #e6ffe6; stroke: #99ff99; }
      .llm-box { fill: #fff0e6; stroke: #ffcc99; }
      .output-box { fill: #f0e6ff; stroke: #cc99ff; }
      .label { text-anchor: middle; fill: #2c3e50; font-weight: bold; font-size: 14px; }
      .label-small { text-anchor: middle; fill: #34495e; font-size: 12px; }
      .label-tiny { text-anchor: middle; fill: #7f8c8d; font-size: 10px; }
      .arrow { stroke: #555; stroke-width: 2; marker-end: url(#arrowhead); }
      .line { stroke: #777; stroke-width: 1.5; }
      .annotation { font-size: 12px; fill: #555; text-anchor: middle; font-style: italic;}
    </style>
  </defs>

  <text x="425" y="25" class="label" font-size="16">LLM Sentiment Analysis Workflow</text>

  <rect x="275" y="50" width="300" height="55" class="box data-box" />
  <text x="425" y="73" class="label">Input Data</text>
  <text x="425" y="90" class="label-small">200 FR Sentences (`df$sentences`)</text>
  <text x="425" y="103" class="label-tiny">+ EN Translations (`df$sentences_en`)</text>

  <line x1="425" y1="105" x2="425" y2="125" class="arrow" />

  <g id="conditions">
     <rect x="40" y="135" width="230" height="60" class="box prompt-box" />
     <text x="155" y="155" class="label">Condition 1: FR → FR</text>
     <text x="155" y="172" class="label-small">FR Prompt</text>
     <text x="155" y="187" class="label-small">+ FR Text (`df$sentences`)</text>
     <line x1="155" y1="195" x2="155" y2="220" class="line"/>

     <rect x="310" y="135" width="230" height="60" class="box prompt-box" />
     <text x="425" y="155" class="label">Condition 2: EN → FR</text>
     <text x="425" y="172" class="label-small">EN Prompt</text>
     <text x="425" y="187" class="label-small">+ FR Text (`df$sentences`)</text>
     <line x1="425" y1="195" x2="425" y2="220" class="line"/>

     <rect x="580" y="135" width="230" height="60" class="box prompt-box" />
     <text x="695" y="155" class="label">Condition 3: EN → EN</text>
     <text x="695" y="172" class="label-small">EN Prompt</text>
     <text x="695" y="187" class="label-small">+ EN Text (`df$sentences_en`)</text>
     <line x1="695" y1="195" x2="695" y2="220" class="line"/>

     <path d="M 155 220 Q 290 235, 425 235" stroke="#777" stroke-width="1.5" fill="none"/>
     <line x1="425" y1="220" x2="425" y2="235" class="line"/>
     <path d="M 695 220 Q 560 235, 425 235" stroke="#777" stroke-width="1.5" fill="none"/>
  </g>

  <line x1="425" y1="235" x2="425" y2="255" class="arrow" />
  <text x="425" y="250" class="annotation">Apply to each sentence</text>

  <rect x="212.5" y="265" width="425" height="85" class="box llm-box" />
  <text x="425" y="288" class="label">LLM Execution (via ellmer::chat_*)</text>
  <text x="425" y="308" class="label-small">11 Models (GPT-4o, Claude 3.5, Gemini 2.0,</text>
  <text x="425" y="323" class="label-small">DeepSeek, Llama 3.x, Gemma 2, QwQ, Mistral)</text>
  <text x="425" y="340" class="label-tiny">(Each Condition processed by Each Model)</text>

  <line x1="425" y1="350" x2="425" y2="370" class="arrow" />
  <text x="425" y="365" class="annotation">For each Sentence/Model/Condition</text>

  <rect x="262.5" y="380" width="325" height="55" class="box" />
  <text x="425" y="403" class="label">Robustness: Run 3x & Average</text>
  <text x="425" y="420" class="label-small">Mean( Run1, Run2, Run3 )</text>

  <line x1="425" y1="435" x2="425" y2="455" class="arrow" />

  <rect x="262.5" y="465" width="325" height="70" class="box output-box" />
  <text x="425" y="488" class="label">Store Results</text>
  <text x="425" y="505" class="label-small">Sentiment Score [-1.0, 1.0]</text>
  <text x="425" y="520" class="label-small">In DataFrame (`df$model_condition`)</text>

  <text x="425" y="555" class="annotation" font-weight="bold">Total: 19,800 API Calls</text>
  <text x="425" y="570" class="annotation">(11 models × 3 conditions × 200 sentences × 3 runs)</text>

</svg>
